<svg id="Layer_1" data-name="Layer 1" xmlns="http://www.w3.org/2000/svg" viewBox="0 0 498 106.19"><defs><style>.cls-1{fill:#284e93;}.cls-1,.cls-2{fill-rule:evenodd;}.cls-2{fill:#e87b1e;}</style></defs><title>Nayatel</title><polygon class="cls-1" points="270.84 0.34 252.04 0.34 219 85.26 235.37 85.26 258.75 25.05 261.45 25.3 291.52 106.01 310.32 106.01 270.84 0.34"/><polygon class="cls-1" points="68.14 0.45 68.06 76.62 16.5 0.42 0.04 0.41 0 85.38 14.18 85.38 14.13 28.02 16.46 28.02 68.18 106.19 84.61 106.19 84.56 0.45 68.14 0.45"/><polygon class="cls-1" points="124.6 0.34 91.57 85.26 107.93 85.26 131.32 25.05 134.02 25.3 164.1 106.01 182.9 106.01 143.41 0.34 124.6 0.34"/><polygon class="cls-1" points="220.78 0.34 197.94 48.72 194.99 48.72 173.51 0.34 157.12 0.34 190.43 67.11 190.43 106.01 204.13 106.01 204.13 66.86 237.16 0.34 220.78 0.34"/><path class="cls-2" d="M635.91,447.24H619.78l-15.4,23.07H591.66v4.17h9.93l-34.73,51.9a33,33,0,0,0-2,3.78c-13.22-7.76-45.64-12.57-55.76-12.67-11.11-.08-47.4,3.59-55.61,14.23,17.14-4.76,36.58-8.75,54.71-8.27,18.63.49,37.89,4.7,55.76,9-5.89,16.76,7.71,27,23.53,16.1,8.54-6.26,15.59-13.46,27.43-25.36-.11,12.39,5.29,25,11.79,27.33,27,8.11,45-22.77,63.41-38.91a96.25,96.25,0,0,0-10.48,20.78c-4,13.14,3.65,25.68,21,15.77a191.76,191.76,0,0,0,29.49-25.05l0-2.25c-10.91,9-32.54,30.3-42.19,26.05-10-6.08,33-52.56,61.06-100H735.25c-22.11,34.29-70.33,91.31-92.64,99.71-17.11,6.46-17.08-16-13.41-16.57,20-3.32,33.13-10.18,43.12-21.95,6.17-12.95-1.69-20.25-18.79-18.24-35,10.09-58.61,55.37-76.46,57.57-5.82.62-6-6.47-2.15-11l42.35-61.91h27.91v-4.17h-25Zm-5.35,78.45c9.33-24.31,32.14-37,34.62-28.83C668.72,508.62,650.59,519.12,630.56,525.69Z" transform="translate(-251 -446.9)"/></svg>