<?xml version="1.0" encoding="UTF-8"?>
<svg width="498px" height="55px" viewBox="0 0 498 55" xmlns="http://www.w3.org/2000/svg" xmlns:xlink="http://www.w3.org/1999/xlink" version="1.1">
 <!-- Generated by Pixelmator Pro 2.0.8 -->
 <g id="New-Group">
  <path id="Path" d="M260.266 1.181 L250.53 1.181 233.419 45.16 241.897 45.16 254.005 13.978 255.403 14.108 270.977 55.907 280.713 55.907 Z" fill="#284e93" fill-opacity="1" stroke="none"/>
  <path id="Path-1" d="M155.289 1.238 L155.248 40.686 128.545 1.222 120.021 1.217 120 45.223 127.344 45.223 127.318 15.516 128.525 15.516 155.31 56 163.819 56 163.793 1.238 Z" fill="#284e93" fill-opacity="1" stroke="none"/>
  <path id="Path-2" d="M184.53 1.181 L167.424 45.16 175.896 45.16 188.01 13.978 189.408 14.108 204.986 55.907 214.723 55.907 194.271 1.181 Z" fill="#284e93" fill-opacity="1" stroke="none"/>
  <path id="Path-3" d="M234.341 1.181 L222.512 26.237 220.984 26.237 209.86 1.181 201.372 1.181 218.623 35.761 218.623 55.907 225.718 55.907 225.718 35.631 242.824 1.181 Z" fill="#284e93" fill-opacity="1" stroke="none"/>
  <path id="Path-4" d="M319.343 1.181 L310.989 1.181 303.013 13.129 296.426 13.129 296.426 15.288 301.569 15.288 283.582 42.167 C283.195 42.797 282.849 43.45 282.546 44.125 275.7 40.106 258.91 37.615 253.668 37.563 247.915 37.522 229.12 39.422 224.868 44.933 233.745 42.467 243.813 40.401 253.202 40.65 262.851 40.903 272.825 43.084 282.08 45.311 279.03 53.991 286.073 59.294 294.266 53.649 298.689 50.407 302.34 46.678 308.472 40.515 308.415 46.932 311.212 53.462 314.578 54.669 328.561 58.869 337.883 42.877 347.418 34.518 345.18 37.872 343.357 41.486 341.99 45.28 339.919 52.085 343.881 58.579 352.866 53.447 358.381 49.648 363.498 45.302 368.139 40.474 L368.139 39.308 C362.488 43.969 351.286 55 346.289 52.799 341.11 49.651 363.379 25.579 377.911 1.01 L370.79 1.01 C359.34 18.769 334.367 48.299 322.813 52.649 313.951 55.995 313.967 44.363 315.868 44.068 326.225 42.348 333.025 38.796 338.199 32.7 341.395 25.993 337.324 22.213 328.468 23.254 310.342 28.479 298.114 51.929 288.87 53.069 285.856 53.39 285.762 49.718 287.756 47.372 L309.689 15.309 324.144 15.309 324.144 13.149 311.196 13.149 Z M316.572 41.81 C321.404 29.22 333.217 22.648 334.501 26.879 336.335 32.969 326.945 38.407 316.572 41.81 Z" fill="#e87b1e" fill-opacity="1" stroke="none"/>
 </g>
</svg>
